<svg width="96" height="114" viewBox="0 0 96 114" fill="none" xmlns="http://www.w3.org/2000/svg">
<path fill-rule="evenodd" clip-rule="evenodd" d="M0.751709 96.1347C0.751709 97.2218 1.60235 98.103 2.65167 98.103H93.8498C94.8991 98.103 95.7498 97.2218 95.7498 96.1347C95.7498 95.0476 94.8991 94.1663 93.8498 94.1663H2.65167C1.60235 94.1663 0.751709 95.0476 0.751709 96.1347Z" fill="#AAADAE"/>
<path fill-rule="evenodd" clip-rule="evenodd" d="M0.75 111.882C0.75 112.969 1.60064 113.85 2.64996 113.85H6.44988C7.4992 113.85 8.34985 112.969 8.34985 111.882C8.34985 110.795 7.4992 109.913 6.44988 109.913H2.64996C1.60064 109.913 0.75 110.795 0.75 111.882ZM12.1498 111.882C12.1498 112.969 13.0004 113.85 14.0497 113.85H21.6496C22.6989 113.85 23.5495 112.969 23.5495 111.882C23.5495 110.795 22.6989 109.913 21.6496 109.913H14.0497C13.0004 109.913 12.1498 110.795 12.1498 111.882ZM27.3495 111.882C27.3495 112.969 28.2001 113.85 29.2494 113.85H36.8493C37.8986 113.85 38.7492 112.969 38.7492 111.882C38.7492 110.795 37.8986 109.913 36.8493 109.913H29.2494C28.2001 109.913 27.3495 110.795 27.3495 111.882ZM42.5492 111.882C42.5492 112.969 43.3998 113.85 44.4491 113.85H52.049C53.0983 113.85 53.9489 112.969 53.9489 111.882C53.9489 110.795 53.0983 109.913 52.049 109.913H44.4491C43.3998 109.913 42.5492 110.795 42.5492 111.882ZM57.7488 111.882C57.7488 112.969 58.5995 113.85 59.6488 113.85H67.2486C68.298 113.85 69.1486 112.969 69.1486 111.882C69.1486 110.795 68.298 109.913 67.2486 109.913H59.6488C58.5995 109.913 57.7488 110.795 57.7488 111.882ZM72.9485 111.882C72.9485 112.969 73.7992 113.85 74.8485 113.85H82.4483C83.4977 113.85 84.3483 112.969 84.3483 111.882C84.3483 110.795 83.4977 109.913 82.4483 109.913H74.8485C73.7992 109.913 72.9485 110.795 72.9485 111.882ZM88.1482 111.882C88.1482 112.969 88.9989 113.85 90.0482 113.85H93.8481C94.8974 113.85 95.7481 112.969 95.7481 111.882C95.7481 110.795 94.8974 109.913 93.8481 109.913H90.0482C88.9989 109.913 88.1482 110.795 88.1482 111.882Z" fill="#AAADAE"/>
<path fill-rule="evenodd" clip-rule="evenodd" d="M71.8829 47.109C79.5219 47.109 85.7146 53.5648 85.7146 61.5283C85.7146 69.4918 79.5219 75.9475 71.8829 75.9475C64.2438 75.9475 58.0511 69.4918 58.0511 61.5283C58.0511 53.5648 64.2438 47.109 71.8829 47.109ZM89.6665 61.5283C89.6665 51.2895 81.7045 42.9893 71.8829 42.9893C62.0612 42.9893 54.0992 51.2895 54.0992 61.5283C54.0992 71.7671 62.0612 80.0673 71.8829 80.0673C81.7045 80.0673 89.6665 71.7671 89.6665 61.5283Z" fill="#0772BA"/>
<path fill-rule="evenodd" clip-rule="evenodd" d="M72.8729 15.4808C77.1631 15.4808 80.6725 19.1558 80.6725 23.7298C80.6725 28.3039 77.1631 31.9788 72.8729 31.9788C68.5828 31.9788 65.0734 28.3039 65.0734 23.7298C65.0734 19.1558 68.5828 15.4808 72.8729 15.4808ZM83.7407 23.7298C83.7407 17.4257 78.8925 12.2822 72.8729 12.2822C66.8534 12.2822 62.0052 17.4257 62.0052 23.7298C62.0052 30.0339 66.8534 35.1774 72.8729 35.1774C78.8925 35.1774 83.7407 30.0339 83.7407 23.7298Z" fill="#0772BA"/>
<path fill-rule="evenodd" clip-rule="evenodd" d="M31.8225 10.2986C43.2387 10.2986 52.5343 20.0705 52.5343 32.1777C52.5343 44.285 43.2387 54.0569 31.8225 54.0569C20.4063 54.0569 11.1106 44.285 11.1106 32.1777C11.1106 20.0705 20.4063 10.2986 31.8225 10.2986ZM56.522 32.1777C56.522 17.8221 45.4863 6.1416 31.8225 6.1416C18.1587 6.1416 7.12297 17.8221 7.12297 32.1777C7.12297 46.5334 18.1587 58.2139 31.8225 58.2139C45.4863 58.2139 56.522 46.5334 56.522 32.1777Z" fill="#0772BA"/>
</svg>
